<svg width="16" height="24" viewBox="0 0 16 24" stroke="black" fill="none" xmlns="http://www.w3.org/2000/svg">
  <path
    d="M3 11.6667V6C3 6 3 6 3 6C3 6 3 1 8 1C13 1 13 6 13 6C13 6 13 6 13 6V11.6667M3 11.6667H1.56904C1.41812 11.6667 1.27338 11.7266 1.16667 11.8333V11.8333C1.05995 11.94 1 12.0848 1 12.2357V22.431C1 22.5819 1.05995 22.7266 1.16667 22.8333V22.8333C1.27338 22.94 1.41812 23 1.56904 23H14.431C14.5819 23 14.7266 22.94 14.8333 22.8333V22.8333C14.94 22.7266 15 22.5819 15 22.431V12.2357C15 12.0848 14.94 11.94 14.8333 11.8333V11.8333C14.7266 11.7266 14.5819 11.6667 14.431 11.6667H13M3 11.6667H13"
    stroke-width="2" />
</svg>
